<svg width="56" height="70" viewBox="0 0 56 70" fill="none" xmlns="http://www.w3.org/2000/svg">
<g clip-path="url(#clip0_69_481)">
<path d="M13.9382 65.0644V39.6711L22.7154 44.6289V70L13.9382 65.0644ZM23.799 60.1556L37.1854 52.6156L40.2611 54.3067C40.3409 54.3467 40.4317 54.3667 40.5248 54.3667C40.6179 54.3667 40.7087 54.3467 40.7863 54.3067C40.9658 54.1889 41.0544 54.0244 41.0544 53.8289V50.4267L43.3235 49.1533L46.1466 47.5778L54.9216 52.4889L23.799 70V60.1556ZM0 57.2311V31.9289L12.8789 39.06V64.4889L0 57.2311ZM23.799 45.1911L30.4246 48.8778L36.0752 51.9822L23.799 58.8867V45.1911ZM31.2401 48.0822V40.3778L39.4744 35.8L40.0173 35.5089V52.9267L31.2401 48.0822ZM46.6762 46.58V21.7778L55.5 16.8178V51.5156L46.6762 46.58ZM41.0788 44.7067L45.0608 46.9444L41.0788 49.1822V44.7067ZM24.2865 44.2644L30.1343 41.0089V47.4978L24.2865 44.2644ZM41.0788 43.4378V34.6067C41.0788 34.5378 41.0588 34.4378 41.0056 34.3511C40.9968 34.3156 40.968 34.2978 40.9547 34.2911L40.9325 34.2644C40.9259 34.2511 40.9148 34.2311 40.8971 34.2111C40.8816 34.1956 40.8616 34.1822 40.8395 34.1689C40.8262 34.16 40.8129 34.1511 40.804 34.1422L32.7646 29.6178L45.617 22.3889V45.9733L41.0788 43.4378ZM14.6096 38.8111L27.1162 31.7289L27.8187 32.1244C27.8985 32.1778 27.9805 32.2022 28.0824 32.2022C28.1045 32.2022 28.1289 32.1956 28.1511 32.1867C28.1599 32.1844 28.171 32.18 28.1777 32.1778C28.2375 32.1778 28.2929 32.1489 28.3417 32.1244L31.6522 30.2711L31.8938 30.4133C31.8982 30.4222 31.9181 30.4311 31.9314 30.4378L31.9381 30.4444L31.9625 30.46L39.4102 34.6267L32.1375 38.6244C32.0954 38.6289 32.0666 38.6467 32.04 38.66L23.265 43.6022L14.6096 38.8111ZM0.556197 31.0022L13.1559 23.8733L26.0083 31.0956L13.4772 38.1778L0.556197 31.0022ZM28.6142 20.7622L46.0535 10.9356L54.8973 15.9156L28.612 30.7222V20.7622H28.6142ZM27.3578 30.5956L18.7534 25.7622V7.83111L27.5306 12.7444V30.6978L27.3578 30.5956ZM4.8152 17.9556V0L17.6941 7.22222V25.1778L4.8152 17.9556ZM28.6142 12.4511C28.6142 12.2689 28.5123 12.0844 28.3527 11.9778L22.4894 8.68445L32.255 3.19556L44.9456 10.3022L28.6142 19.5178V12.4511Z" fill="#6866D0"/>
</g>
<defs>
<clipPath id="clip0_69_481">
<rect width="55.5" height="70" fill="white"/>
</clipPath>
</defs>
</svg>
